# xmcd
#
# Track frame offsets: 
#        150
#        17093
#        30561
#        49835
#        71737
#        90767
#        115864
#        133139
#        150599
#        170893
#        195753
#        215827
#
# Disc length: 3095 seconds
#
# Revision: 1
# Processed by: cddbd v1.5.2PL0 Copyright (c) Steve Scherf et al.
# Submitted via: ExactAudioCopyFreeDBPlugin 1.0
#
DISCID=9f0c150c
DTITLE=P.L.A.N. - Вялікае калі ласка
DYEAR=2004
DGENRE=Blues
TTITLE0=Аднастайнасьць
TTITLE1=Аковы каханьня
TTITLE2=Замкнёны ў сабе
TTITLE3=Жахі навокал
TTITLE4=Калядны Rock-n-Roll
TTITLE5=Самотны Blues
TTITLE6=Сьветлая галава
TTITLE7=Ранішнія адчуваньні
TTITLE8=Шынкарачка
TTITLE9=Вялікае калі ласка
TTITLE10=Купалінка New
TTITLE11=Пасадзіў дзед рэпку
EXTD=
EXTT0=
EXTT1=
EXTT2=
EXTT3=
EXTT4=
EXTT5=
EXTT6=
EXTT7=
EXTT8=
EXTT9=
EXTT10=
EXTT11=
PLAYORDER=
